<mxfile host="65bd71144e" pages="3">
    <diagram id="-wXtaiW85dH69ZlTuzc1" name="001 - What is two phase of JS">
        <mxGraphModel dx="670" dy="387" grid="1" gridSize="10" guides="1" tooltips="1" connect="1" arrows="1" fold="1" page="1" pageScale="1" pageWidth="827" pageHeight="1169" math="0" shadow="0">
            <root>
                <mxCell id="0"/>
                <mxCell id="1" parent="0"/>
                <mxCell id="DFu2FJcArUvKcFZDa0Mi-4" value="2 Phase of JS Engine working" style="rounded=0;whiteSpace=wrap;html=1;labelPosition=center;verticalLabelPosition=top;align=center;verticalAlign=bottom;fillColor=#d5e8d4;strokeColor=#82b366;" parent="1" vertex="1">
                    <mxGeometry x="130" y="140" width="166" height="160" as="geometry"/>
                </mxCell>
                <mxCell id="DFu2FJcArUvKcFZDa0Mi-5" value="Creation/ hosting Phase" style="text;html=1;strokeColor=none;fillColor=none;align=center;verticalAlign=middle;whiteSpace=wrap;rounded=0;" parent="1" vertex="1">
                    <mxGeometry x="136" y="170" width="160" height="20" as="geometry"/>
                </mxCell>
                <mxCell id="DFu2FJcArUvKcFZDa0Mi-6" value="Execution Phase" style="text;html=1;strokeColor=none;fillColor=none;align=center;verticalAlign=middle;whiteSpace=wrap;rounded=0;" parent="1" vertex="1">
                    <mxGeometry x="133" y="240" width="160" height="20" as="geometry"/>
                </mxCell>
                <mxCell id="DFu2FJcArUvKcFZDa0Mi-7" value="Execution Context" style="text;html=1;strokeColor=none;fillColor=none;align=center;verticalAlign=middle;whiteSpace=wrap;rounded=0;" parent="1" vertex="1">
                    <mxGeometry x="150" y="310" width="126" height="20" as="geometry"/>
                </mxCell>
                <mxCell id="i7nYjdYXNc4C2cfS8UBw-1" value="&lt;h1&gt;Creation/Hosting Phase&lt;/h1&gt;&lt;p&gt;- Step where javascript complier scan through the code before execution.&lt;/p&gt;&lt;p&gt;&lt;span&gt;- Define variables and function name and allocates memory for them.&lt;/span&gt;&lt;/p&gt;&lt;p&gt;&lt;span&gt;- In this step, JS Engine will store reference of existence of variable and function, but doesn't store data with in.&lt;/span&gt;&lt;/p&gt;&lt;p&gt;&lt;span&gt;&lt;br&gt;&lt;/span&gt;&lt;/p&gt;" style="text;html=1;strokeColor=none;fillColor=none;spacing=5;spacingTop=-20;whiteSpace=wrap;overflow=hidden;rounded=0;" parent="1" vertex="1">
                    <mxGeometry x="380" y="40" width="320" height="160" as="geometry"/>
                </mxCell>
                <mxCell id="i7nYjdYXNc4C2cfS8UBw-2" value="&lt;h1&gt;Execution Phase&lt;/h1&gt;&lt;p&gt;- This phase, JS Engine will start executing code line-by-line.&lt;/p&gt;&lt;p&gt;&lt;span&gt;- Define variables and function name and allocates memory for them.&lt;/span&gt;&lt;/p&gt;&lt;p&gt;&lt;span&gt;- In this step, JS Engine will store&lt;/span&gt;&amp;nbsp;data&lt;span&gt;&amp;nbsp;of existence of variable and function&lt;/span&gt;&lt;/p&gt;&lt;p&gt;&lt;span&gt;&lt;br&gt;&lt;/span&gt;&lt;/p&gt;" style="text;html=1;strokeColor=none;fillColor=none;spacing=5;spacingTop=-20;whiteSpace=wrap;overflow=hidden;rounded=0;" parent="1" vertex="1">
                    <mxGeometry x="380" y="240" width="320" height="160" as="geometry"/>
                </mxCell>
            </root>
        </mxGraphModel>
    </diagram>
    <diagram id="DOU2_F3XT-WwnVoyevvU" name="002 - 2 Phase Execution example - 1">
        <mxGraphModel dx="418" dy="387" grid="1" gridSize="10" guides="1" tooltips="1" connect="1" arrows="1" fold="1" page="1" pageScale="1" pageWidth="827" pageHeight="1169" math="0" shadow="0">
            <root>
                <mxCell id="Lf4OAfzkMTAFU_OsHtha-0"/>
                <mxCell id="Lf4OAfzkMTAFU_OsHtha-1" parent="Lf4OAfzkMTAFU_OsHtha-0"/>
                <mxCell id="4rzY9pSsmf11BC9IZDXy-1" value="Example - 1" style="text;html=1;strokeColor=none;fillColor=none;align=center;verticalAlign=middle;whiteSpace=wrap;rounded=0;" parent="Lf4OAfzkMTAFU_OsHtha-1" vertex="1">
                    <mxGeometry x="40" y="10" width="160" height="20" as="geometry"/>
                </mxCell>
                <mxCell id="YxBRckSB-JD5XVnZZPdV-2" value="Memory" style="rounded=0;whiteSpace=wrap;html=1;labelPosition=center;verticalLabelPosition=top;align=center;verticalAlign=bottom;" parent="Lf4OAfzkMTAFU_OsHtha-1" vertex="1">
                    <mxGeometry x="400" y="40" width="280" height="160" as="geometry"/>
                </mxCell>
                <mxCell id="YxBRckSB-JD5XVnZZPdV-3" value="a" style="rounded=0;whiteSpace=wrap;html=1;" parent="Lf4OAfzkMTAFU_OsHtha-1" vertex="1">
                    <mxGeometry x="410" y="60" width="120" height="40" as="geometry"/>
                </mxCell>
                <mxCell id="YxBRckSB-JD5XVnZZPdV-4" value="undefined" style="rounded=0;whiteSpace=wrap;html=1;" parent="Lf4OAfzkMTAFU_OsHtha-1" vertex="1">
                    <mxGeometry x="550" y="60" width="120" height="40" as="geometry"/>
                </mxCell>
                <mxCell id="YxBRckSB-JD5XVnZZPdV-7" value="Hoisting Phase" style="text;html=1;strokeColor=none;fillColor=none;align=center;verticalAlign=middle;whiteSpace=wrap;rounded=0;" parent="Lf4OAfzkMTAFU_OsHtha-1" vertex="1">
                    <mxGeometry x="450" y="210" width="190" height="20" as="geometry"/>
                </mxCell>
                <mxCell id="YxBRckSB-JD5XVnZZPdV-8" value="" style="rounded=0;whiteSpace=wrap;html=1;" parent="Lf4OAfzkMTAFU_OsHtha-1" vertex="1">
                    <mxGeometry x="40" y="240" width="320" height="40" as="geometry"/>
                </mxCell>
                <mxCell id="YxBRckSB-JD5XVnZZPdV-9" value="output" style="text;html=1;strokeColor=none;fillColor=none;align=center;verticalAlign=middle;whiteSpace=wrap;rounded=0;" parent="Lf4OAfzkMTAFU_OsHtha-1" vertex="1">
                    <mxGeometry x="40" y="280" width="320" height="20" as="geometry"/>
                </mxCell>
                <mxCell id="YxBRckSB-JD5XVnZZPdV-10" value="" style="shape=image;verticalLabelPosition=bottom;labelBackgroundColor=#ffffff;verticalAlign=top;aspect=fixed;imageAspect=0;image=data:image/png,iVBORw0KGgoAAAANSUhEUgAAAWwAAAC+CAYAAAARHjUpAAAgAElEQVR4Ae19d5gVVZq+s7MzG+bZnZ3NO/M8OzvEzk1uQhObnJoMTRMEWqLEJufUNLGbAUFBBEkSFEZxBBQEFJWokgaEQeEH4ijKIOqou7+d5/s9b/XvO/dU3aq61eHSVbe/P+o5devkc956663vfKfuI9XjKpEcMgZ+w0DnzPZUULjcOBo0qONbjLbIaELr1z9ltHPs2McpPqGKb9vqtzmW9hSfdx6RQSv+oMmYyZgJBgQD5YEBIWx5wxBFKBgQDAQEA0LYAZmo8niaS52iIgUD/sKAELYQtqgrwYBgICAYEMIOyESJ0vGX0pH5kPkoDwwIYQthi7oSDAgGAoIBIeyATFR5PM2lTlGRggF/YUAIWwhb1JVgQDAQEAwIYQdkokTp+EvpyHzIfJQHBoSwhbBFXQkGBAMBwYAQdkAmqjye5lKnqEjBgL8wIIQthC3qSjAgGAgIBoSwAzJRonT8pXRkPmQ+ygMDQthC2KKuBAMRMdC1/S/o1rEfGUeDer+MmL4kZBYfX4k+PFRUx9Dsf49KHSVpl5/yCGHLzRrIG6N2nRQ6++4Jeu+9k6bjt7/d68v+9JtUnRb8JjHsyOha1ZfttZLUzSM/IrryCD04+xdRbe+dN//SqOf+6R9GtR5r/4Ly27eEnZBYlbL79aJ582YYR27uaJlAebgoDDRvkU7ff/9V2HH//mcqjZ9uwvl7Eum5WylhR98J1X3ZXn3sxuf8q0GiIOy1838W1fZOHfkvqq6Cmf8Y1br0Pgbl3HeEnZwSR4MG96OCgsW0cuVSdSxdulAmTwhbYSAlNZ42bVqnjs8/v2OQt18Ju312VcqZH2ccE9bEK+IOAmHffeeHBon+76UfUHLyr9QcRIvkvn3/B0Z9CKNVR1DL9RVhN2xYJ4yombSFsGWRx+0mu3TpPV8Ttt72hi2rBIawe3b6hVK8B5/5yUMh0M3LfqrqhLrXx66in/uKsFtkNFaKOi9vDnXs1Iby8+cZ14SwhbDdblYh7Ojg48Tuv1Hk2bTRfz4U8kxN/RX9+fIjRr3XXv3xQ6nTDVt+ivMVYTdpUt+wV7dp01xNkhB2JYK9dt261XT8+Ot048ZVunr1Ih0+vJ8GDsxS42QFVWJSNeNB98Ybh+jDD6/Q+QtnadeurdSjZ6ZjnlWrltO27Zto/PhRVLNWkvGwPHHiDbp58xq9+eZhynlsoGNe1F+/QW3atXsbvf/+Kbp16zpd+/3v6NSp47Rq9Qpq2Kiua94pUyfQ/gMvGX1D/7B4OG78KNc8ep9LQtjdunWkrVufMRYt0UeML97oov2/jCVR2M06VqHRBfGU/0oiFRxJoqmbEihrQnWKi3cn6rRmVWjk0jhadiiRlhxMpGF5cVQ3vTK16V2VBs2qTr3HuNvQ2TzhdRGwVu1kyls018DLlSvnDRwAA5s3P+2KPX0ucc6LnCBua5zT7wm5o2nLlg3q6JzZznNepzL9dt1XhG03OBWdsFesyKdvv/0ybHGNF9wOHNgXBsp27VvSZ5/dts3z3XcPaO2Tvw7Lg7H/+ut7Rp7z58/Q7dsf2uZftizPNu+MGZMIZXO7rOEX9z6xzYcHAzw9rOn591tvHyWsa9hhQ79WXMIGgXAd1vCTT25Sa0006PWUxXlxCRska7dgiWtPnEyiOumVbcenbZ+qtO1G+ELns1eTDdJHfpw79QmKGguNOD44EFnpAnfWsbT+hvBwqk+//tbOkLIf0PM/POW5ePFdU/0FhUs85dPr9fu5ELaPF/LWr3/CBEAoT6hQkBgT8pkzb5tACXWIhTe+UT799BYdOXLQUL06oc6cNcWUD0Blwua8d+7coKPHXqOPPvpAlYc0VgWaWiPB9FCBWj14cB/t3/8iXb5y3iDye/f+EFYf6kT7ub6vvvqCjr91xOif3pajR1+1zavfXMUh7Jdeel7ViYfhyVPHDUWPtxduCxYxrf3U6yvNeXEIu29udUXW22+mELxNpj2bQOveT1bX170XTro10yoT0jPRLz+cRBPXxdPqE0nqWiTCzpv4T4qwX90Y2X6d2aW9Gj+8YQGne/buNOZUFx2rnyiIOJ+bloTs2FuW/TRiesyHELYPyKyiKmyYEBjkf/rTfRoxYkgYaKG+d+/eZrqOa0w6ME3opDN8+GClgu/e/diUD4DXSfK1Q6+Y4nHzcbkwmeiENWv2VBX3+usHTHFIh77MnTs97LquyEDoutmkWbOG9OWXd41y8aBp0rRBWH69DV4JG8qZH1yoE+YmvRyMJ/fz6Q1rTXF6utKceyVsmDs2Xi4iZpBv885VVHviEioRTBxMyF2HVlNxaNuk9SFPlKELzW8oc59PUPncFLa++LdqdmR3vkbp9QxB0bJVU1Nb0B7MLXCMsXV629LHNHdoyJXwtU2RHxbIK4QthB0GPB1U0TyHMmHi2LjxKc/tgLLhfCA9axvPnTut4vtkdTfFM2HjQQFThZ4Xablcq0IqXLlUxcEOrudzO9eVLuye1rSoh+uErdkar//2StiwxXOZ1v6jPP1t4fbHH7nWqddfnHOvhA2TBhPyrO0JYW2p3yLkbQIbtd6GLdeL1LUdIdduWFmVaxfP5ezf8BOlsHOySr/zEGsEPPZch1OY0TRkjnl371+b+uaURwhbCNsTUJwAVJrrFy6cNcANNYgFRK9lPXjwuZEP5gy7PPPmz1Q3zfwFs0xpmLBhv7bmBYHzzWZV9YOH9FdxMGssX76I0urXCivDWiZ2KnKZ+psAp8MCFsfjZufrdqFXwtYfaHhreOedY+rAAisO9AH14sFlV1dpr3kl7H6TQ+aQDv3td0SuP1ekwJ++EDKLxCdVUoQ804bo0X6YUSKZRA5vDhF2Vpefex4L7EJdsnSh8faHeTt9+i3jYDMexhYPRrdxTKv7S/WwOL/vr1zTcjlQ+DDL8GEVHZwuyKHYsH3wULIDEIMbZgG7eKdr/LoPArNLg01JTILbtm00pWHCxqKjXV7Ot2/fC2HxsFtzPIewpR87dijM7MBlM3l+880fw8rjNNyfa9cuOaZBWq+EzWTMbYwUFudhyW2OFHol7LGrQmYN5LErt/BYkU0ai4scn94mpLxHF8ar6xyPEJ4mkQh758q/V6QJe7ae3+kcD3M25bmNbd16NVzLw7dEeMHzje1/65rWqS2xeF0I26eEzUoZxO0VePCm4JvEuhjJZXTt1lGlefnlPaaymbChfDm9HnLZdoQNhbxmTSFxuzktQpDuiy/uDisTdnTEuz2UQOZIE8k84ZWw+QGAOnfu3OJ6PPfcs6Y1AH0sSnPulbCxuMgmkVoN7D1BlhwI2bG5TS26hEwpw/PN9mtOg0XISIS9ctbPFGnuXfN3YfPHZXGoe95gnPGWCPdMuIriuH79ssJepDew1XNCdb/wROS6uQ2xHgph+5SwvahPO3CyuoEPtF386NHD1E1jde8rDWHrdbF/M28XZ/J+dFC2qU1oI+LcTA+cF37keh3Wc6+EjYVGlOll4ctah/4byls/9LhI514JG2TLhK0vOOrls9fH5t+HFHZqnZCNevIGe4UNd8BIhN078+eKsM+9FNkswW8vwBE2wentxDnetng+IxE2FhpZYeP7ItayKupvIWyfEjZsqQxueFN4BSiICPmcvqmhuwrmThxjKresCFtvK9wQuR/Y1KDH6YtQVm8NpMPGB84LN0E9r/Wcfbmh7Ozs4ZwerpEoEw+Jkpo74N/L7eKwcZP6ru3j+hHCb5qJeMxKe0JFup6jqql0Tt8cAVGjrLVnQjZs5GWXvl8fNy8eIw4eJls/cl6URBo+8P0QECe+J8LX7EIQMI+F3d4A5NHNZpEI++rBHyvCrlnjv1zr5vbAewkuoHxY8c3pghwKYWvg9NNELl6yQN0AICOntmGhRY+D/ZlvHLjx6XE4h182x1tJMhqEPXVarqpvz54dpvasXbtSxe3du8sUh7bCtZDbuih/Xli83jeYaTit245M/bUd53oZ1nOnDTvYDcl1cWjnkWMtT//NhG1HqJyugeYFYpeu8+AQoc/eYV7EYxs16mnU2mz/7jMutJjp5iWCdlw/VPRZVew4TEx0/vCTvkCMhyL3gUPsyuWxQhiJsL89V/Sg+OKk+4OCy0e47+U9pjogFvT4WDj3HWHXS6tJ7Tu0Ugc8DnCDwL9Yv450sTABbn3AjjsGOTZ36As1WAnHlnOrrVp3v8MrKm9Fh5rENnUuz85OXVLChmpHW+HSp6/Mo269D2PGjjDNGQiR64Qy1r1WdH9y2JvdVDPGEGVz32D2AMG3bZdhHCATHmeMA28sQp2wY+tKG/7eO3ZsNuzqiON8elgWhM0mCRDqjK0J1LhdFarXtDLB5U6vS/e1zn0q3lDHiIeJhF33UAZc/PR8rXuG7NhQ4ZmDq1Gt+pUJZM3qG/kiEfaMx0OfO109190Xm00imAf45vO4Yg8BzzPPkRth659YXZ/3D6Z+6X20ngthl4P6HDr0UYOgcVO4HTk5AzxPpHVig/I7O7sn8aIbAx3AZzs1rlkJG30DuXN6hNYysIGhQ8fWYePHN5UdmaNcLtO66AhTB8chRDnWOp0WDXUfbuRF3/T+4doCi/uh0/zpOxX19ljV+6jHh4bVAbKx1htNwtZ9rEGcfIBM9f6ByPXt5YjXiRr5pm40q2vOP31LaNGSy+eQN+REImxj3s8Xqd0HZ9z/vEA3t/Fc8mYZ/MaDl+fFjbBvHyv6EwOoenwIivsTKYTZjMtHiJ22kfIELd53Cvuxxwa6EjWT+JAh/WNuMuzAgx1iWHDTgcjnUJJ2W8xRDjaaQEFyWg5BnBktm9iOHSsku4cAyuQyrB4fsB2yGyKn4RBtgK06zeWNCB/t4YcF50MIjxO7HZ5244Rr+EY27JdWTxWrKQZpsSjGi556nThHmy9fPuf4ca3S2rC5/a17VaU1p5LCCJnjOcQHnJ48E9qKzqQL8sYHnDidXYhvcD99MZT3yXeTDZXN3iUbLoXePuzy49r2gpB736iB/+ZaH8baijs8CPHhMd0c5YQH/BUZLzYe3Vo8dz7dRo557D+gj2tbnfrr5+u+I2w/D1Z5tg2vl1l9exgbEkDSMIlEag/MCL37dDPygFTdVE2ksrzE4yaE3RzmCNjg8RbkdGPalQcTBjb2zJkzjey2N9vlKe01mGVwY+OjVniNxxg72a5LW1dp89eoW5k6DqxmEC58rSN9qU+vLym1EiWmhhYTsUgJ4i84Gr4oqefDeUJCJWKbMmza1njrb+AMJiqYM4E/a7zb71PPF330CYuddet4W2xEebg/9AfFBx9cKFa9bm3yU5wQdjmYffwEAGlLiMQqyljoW9NhNvHS7/kT/lkp32j9CS8eDPwdbHz8yUu7OI2+hgF13atXl2Ll53L8HgphC2HHJLD9fuM9jPbl7UskbE3HRhpW4w0yqhgugGxWcdpB+TDaV5Z1wF7Npi1s2CnLsv1UlhC2EHbMgttPN1p5tIXNHkzO+uIlruG/JcujXdGoE2sdcBPFEc1vmUej7cUpUwhbCDtmbtriAL8ipMWmHPYGYdJGiEXIbsO8f1CsIoxVUPoohC2ELYQd4xhISKpE8DRp1KqK8uMOCkFJO81rLELYMX6zCuDNgJfxkPEIMgaEsIWwRWELBgQDAcGAEHZAJirIqkDaLqpWMFA2GBDCFsIWdSUYEAwEBANC2AGZKFEoZaNQZBxlHIOMASFsIWxRV4IBwUBAMCCEHZCJCrIqkLaLqhUMlA0GhLCFsEVdCQYEAwHBgBB2QCZKFErZKBQZRxnHIGNACFsIW9SVYEAwEBAMCGEHZKKCrAqk7aJqBQNlgwFfE3ZScnXffkxeAFg2AJRxlHEUDHjHgK8IG3/xhH/8mD9/JhUULFZ/FYbzefNmUKtWTeXVTd4IBAOCgQqLAV8RNkiZ/7PRKRwxMqfCTpYoEe9KRMZKxioWMeBLwl66dCENGz6YunbrSO07tKKRI3NMRN6xUxshbVFZggHBQIXDgK8IG/+YnpnZznYSQN6sumfOnGybJhafqNInUYqCAcEAY8BXhM2NcgrZro1/Y3ZKI9cF3IIBwUCsYiCQhL1sWZ4QtrwOCwYEAxUOA4Eh7HppNZVJZPKU8RVuomJVMUi/RA0LBrxjIDCEPW1ariLszC7thbBFXQkGBAMVDgOBIGx9wXHGjEkVbpJEgXhXIDJWMlaxjAHfE3aj9HpUWLjEUNdYdKxRM1EIW5SVYEAwUCEx4GvCrlM3lVasyDfIGqTdvEV6hZykWFYM0jdRxIIB7xjwLWFDSWMDDfted+jQSshaVJVgQDBQoTHgS8JOTomj/Px5iqx79OhcoSdJFIh3BSJjJWMVyxjwHWEnJlWjBQtmKbLOzu4pZC2qSjAgGBAMxFUiXxF2fEIVmj17qiLrQYP7ySTJjSoYEAwIBv4/BnxF2JMnj1NknZc3hzp0bG1/iD1bACwkJhiogBjwFWHjGyG8yBgphJ07lm1V0jexxQoGBANWDPiKsPGNkEhEzfFC2AJmK5jlt2Ai1jHgK8KO9cGW/gmhCAYEA6XBgBB2BbSDlQYwklcIRzBQfhgQwhbClrUAwYBgICAYEMIOyESJqik/VSNjL2PvFwwIYQthi7oSDAgGAoIBIeyATJRfnvDSDlGbgoHyw4AQthC2qCvBgGAgIBgQwg7IRImqKT9VI2MvY+8XDAhhC2GLuhIMCAYCggEh7IBMlF+e8NIOUZuCgfLDgBC2ELaoK8GAYCAgGBDCDshEiaopP1UjYy9j7xcMCGELYYu6EgwIBgKCASHsgEyUX57w0g5Rm4KB8sOAELYQtqgrwYBgICAYEMIOyESJqik/VSNjL2PvFwwIYQthi7oSDAgGAoIBXxM2/lUmJTVewBQQMPlFhcR6O+LiKss9UUHvCV8RdouMxjR+/CjKz59HhYVL1N+FFRQspgULZlF7+fNduVFj4Ebt1WYMrRn3O3p64k1aP/EGpSanRpzXlo260fJRJ2jHzG9o7zyi52Z+RUtHvEVN67ePmDfWH2AVqX++IuyRI3MUSfN/N1rDceNHCUBjgLQq0k2GvkIVD+w0i7ZOv2cQLkiXjzo167tiul2TLNoz988qPedD+MLc/0sZDTNd81e0sY7l/vqOsKGmJ04cQ1lZ3Q1F3aNnJk2dOsGkuLt17yQAFdIOFAa2z/jSlnBBum6EnZKcYiLrqf13UI/Wj9PMR/eo8p6f8z+UkFA9UOMRy6Qazb75irATk6o5gq5580ZKfc+YMckxXTQHS8oWb4GSYoAV8q5Z39LIHispf9hRRbhuhD2s2zKVLrfvJhPul4w4ruL6d5xhiitpOyWfvzHuK8KOBJZly/IM0kYYKW3Q41vPXkRt5i+jOh07Ova1VpvWRhqkq9myhSldfEocpQ8ZSplPbaXee1+nfkfOUZ+XjlHnNc9SjRbNTGmtY5VQI0mVW6t1K4pLqEJpPXpSh4KnKPvQWaO8ljPmG9eteYv7Oz6hCo0ZO4IOHtxHFy6cpVu3rtP5C2fphReeM64Xtzy/pt805RPK6ZJP8fFVjbFfkHNQka0bYSMfVDgIX1fRNVNrGeYQNo+sy73uOKfde3SmLVs2qAPj7ddxkna5PzACQ9hx8ZUJ5hLYtLEoGesT+9jlL2jo1fuU+dQ2x772P3reSPPYB/couUE9lQ4ki2vI73S0nDZXpbeOZYPs/ipf09ETaODbH6jfenmtZi10LMNaptPv+/c/o++//8rxOHnyTYK3kFP+oF73QtgJCdUUqVsJecmIN1Uck7bTWKxbt9o0vmfOvB1z4+nU91i7HgjCrl07mcZPeFyZREaMGBLzgBtw/LJBkn0PnrTta8P+jyoS7bTqGVOaFpNmGHEg7az971CX9TsMZT3gjUsqD4g3pVEDUz4Gd7tFhSrdoLM3jfOc392l7NfOUNYrb1POhT8Y1+pn9bXNz+V4Cb/55o8Gmdy9+zGdPfsOvfjibjp8eD/98Y+fKpI5d+50qetBW7rG1aLd1XsU6+gQV6NM6raOhRfCrl+nqSLlWYN+o9rRqfmj6rq+iOnkbSKE7a5arXPj59++JWwsPE6ePI4WL56viBrqGu59sai4rCDpufOAQYqD37+tblQ9zcB3rioihQlDj2vYbwA1Hz+ZYBbRr+O80683GPlA2E1HjQ2LRxqYUHQlnfnkVopLCi1qwUTSduEKSqhprtdal5ff+/a9QI8Oyg5rB0wlN25cVaTdKD30BuGlXLs0o6qn039Xm1CsY1B1dw8Ou3q8XPNC2G2bZClizu270RgjqG649EFVLx7+hmnx0cnFTwhbCDvsBvMCUq9pYP6wuvPh9/TpE8ltYdJr+UFIp6vcuMQiuye3u8nwxxWhFtcsAVXNZJwxZbbtPA5+9/+oNFb1zm14GOH8BbMUYZeFO2enuBr0TPXMYh1t4lJsx6i0/fdC2H3aTlCEPbz7cqMdk/ttM67BMyQ1pQaNz3papclsYf/mKYQthB0VEOs3weQp4w13vnnzZijbNUg7L28O1aiZGPX69baUxzkWDJlYa7drF+pvfGViMwXUN9SuXfugiFFG6zn5lLluO3Xfts84sPDI5TYalBOWF6qc41GPU/l2dZb0GtT01Gm5tHXrM3T06Kt0+vRbxnHt2iVF2PPmzwxra0nr80M+L4Sd3WGqIuPHui6mJmlt1G/EoR+je61R17q3Gmk7RrVqJ1Nml/bqaNiorm06P4yLtMH94eJbk4g+cVDV+qYaKG09PhbPU5s2VsTZbEyu6m+LidPVdShta9+hxtsuKiTYnJl4ncKUxg3D8sMbhNO3X/ZEWLy1vtL+hovml1/eVcTstACZt8h5kbS0bSiP/F4IW7dVT8jaYOyMhCkEuyS5zfDL5kVH7Ibk6xK6E19QxycQhM2DO3fudGUqqVmr9PZTLtevIXt6wO6MNoKMh5y/YxDqgOOhm1a1P76y4brHhDvk3MfU7dk91GHFk9Q2r8Bw1WNzB7xQVD5tE07ruYsVYddsmWGbxi5fSa5l9e1B3333QJE1bNavHXqFduzYTNu2bzLUNhN4WXgGpcRVpeZxScU6kuPs32BK0l89jxfC1hU1/LdBzHDvS6uVruZlfs5+Rdhu7oF63XIeXDIPFGEPGpStCLtVa3df4lgA5aDTHxrkCTMG+gPfbCZjKGFrH+GCx/G99hwyLRQiLcwb7C4Il0BrfvzmxU4nQrfLU9JrMH0wIdvZqOfMmabiy4Kwg7bomJKcrMiYVfSI7itM8wa1zXHyUajgErHXeyhQhD18+GBF2BXhQ1C9f3PEIOBBpz+i+JR4yrn4WRGBv3zcdNPyZMMFkAnbzoNDX6yEXZvz6SE/JPofu2Abr6ct7fmnn94yCPnOnRu2de3du6tCEzbGl5U1SHnj5I9N44RNOLyDElvfneajbbsM420F6wM4sAjplFau+5v0fUXYbp9STUquTrzTEYuPFcEkgp2FIGCYRtovXa3IuEaL5rY3HJOtoY7jzZ/gTEqrrQgfZTYbG74OAJMLE36XDTtt6yjLG/rzz+8YhAxfbCw86mWn1kgg9tGGCi8LhQ3zRuO4hGIdSeVoEsF4TB+4Wyloq7ru236yioONWx8//Xz06GHqwYexdHpA6nnk3J/E7RvCxsIiiHjmzMmUmdmO6qXVJLj3wee6XbsMwzsE8Tjgi10RANV01DhFoEykXTe94Nj3vgdCChvmE/bwSOvVm2DP5jIQ2pF+nU6dVJrmE6Y41lNWY48NMWwSgZpOS6tp1JnRsolBKhxXVoRdVu0uSTnY1IKPNvGxdvwVRbb4ih9fb5Xe3TTujepmqHT4Mh++3If64aON32wOcbNfC2H7k3xLgiPfETaTslOI7ekg85J0Nmh58K0QnWShtKGUnfrRbOwkc/rLXyibNcph+zXKsSuj5dQ5Kj+2t9ulKctr2dk9FWEzOX/11Rfqmr5tvSwUdlm2vbhldW4+SJErk6xdiO9jW8vGphm7tHxtZI/CsDx6GbkTx6gxxTh//PFHrun1vHLuL7L3DWHjlRi+1ytW5Cs7tZW0c3NHU+060dnI4EdgQiHrhN1h+dqIN1rHwnWmPMgPdY3dj/AswW9sUbfrb5dndhnxToRul6e01+D58/XX90yEAlK5ePFd0gk96G59HZsNdCVdJl/rN0N4fEf3esKkqJEeChsflOI0TqG+FoCxhQeOU1q57i+Cts6Hbwhbb1jdejWoZaum1AXO/pntKL1xWoXZ4aiPQ0nPk9LqUKOBgwkmFf2jUCUtL9r5sHYxaHA/Y40C34mpCJ8eKOmYNmvQkfp1mG5sovFaBr6AyG8weDi6rRV5LVPSlQ+x+5KwBQzlAwYZ99gbdzz8dF/3Z555UtS1tu8gaJgXwg7w5AUNbNLeh/9AgH87q2usD1SUb/HEKtaEsIWwRXHFMAY6dW5La9euNI7BQ/rLXAd8roWwAz6BsaokpF8PX43LmPt/zIWwhbBFdQkGBAMBwYAQdkAmStSP/9WPzJHMUbQxIIQthC3qSjAgGAgIBoSwAzJR0X5yS/miDgUD/seAELYQtqgrwYBgICAYEMIOyESJ+vG/+pE5kjmKNgaEsIWwRV0JBgQDAcGAEHZAJiraT24pX9ShYMD/GBDCFsIWdSUYEAwEBANC2AGZKFE//lc/MkcyR9HGgBC2ELaoK8GAYCAgGBDCDshERfvJLeWLOhQM+B8DQthC2KKuBAOCgYBgIBCEPXJkDi1aNNc4cnIGCLgCAi5RbP5XbDJHwZoj3xN2q9bNTP/xOHnyOCFsIWzBgGCgQmLA14SdkFjV+J8//c94hbCDpQhEwcl8CQbKDgO+Juzhwwcb6hrmECZtIeyym3y5kWQsBQPBwoBvCTs9vZ4i6eYt0tW5EHawACaEIPMlGCg7DPiWsBcunG2Q9LhxIwmmEVHYZTfpcgPJWAoGgokBXxJ2dr9eBkEXFCymlNR4IWxZYKqQC0xCqsEk1ch6a6oAABHVSURBVGjOm+8Iu3adFCosXGIQdp8+3YwbVRS2ADeaN4GULfgKCgZ8R9gzZ042yDovb45SVULYckMF5YaSdgpWo4kBXxF2ZmY7Zatu2qyhELaYQhQGonkTSNlCskHBgG8IOzkljlasyDcIe/yEx003qihsuaGCckNJOwWr0cSAbwh7wIA+Sl0PGpRNWVnd1cGLkPAUgakEcT17ZppIPZqDJGXLTSgYEAz4AQO+IezBg/spwmYXPrcQC5N+GEBpg9zIggHBwMPCgG8Iu3fvrrR06ULbY9myPEXmIGqk0xclH9ZgST1yYwoGBAPliQHfELbbIIgNW24SN3xInOCjomBACFs8McS0JBgQDAQEA0LYAZmoiqIgpJ+ilgUDzhgIBGHHJ1RRNuxJk8aKGpCHjGBAMFAhMRAIwpYnrvMTV8ZGxkYwUHEwIIQtSqVCKhUhuYpDcrE010LYQthC2IIBwUBAMCCEHZCJiiWVIH0RdSsYKBkGhLCFsEVdCQYEAwHBgBB2QCZKFEnJFImMm4xbLGFACFsIW9SVYEAwEBAMCGEHZKJiSSVIX0T1CgZKhgEhbCFsUVeCAcFAQDAghB2QiRJFUjJFIuMm4xZLGBDCFsIWdSUYEAwEBANC2AGZqFhSCdIXUb2CgZJhQAhbCFvUlWBAMBAQDAhhB2SiRJGUTJHIuMm4xRIGhLCFsEVdCQYEAwHBgBB2QCYqllSC9EVUr2CgZBgQwhbCFnUlGIiIga7tf0G3jv3IOBrU+2XE9CUh5Pj4SvThoaI6hmb/e1TqKEm7/JRHCFtu1kDeGLXrpNDZd0/Qe++dNB2//e1eX/an36TqtOA3iWFHRteqvmyvlaRuHvkR0ZVH6MHZv4hqe++8+ZdGPfdP/zCq9Vj7F5TfviLs9PR6tGjRXNdj7tzpMpHykKHmLdLp+++/Cjvu3//Ml/iYvyeRnruVEnb0nVDdl+3VCWx8zr8aJArCXjv/Z1Ft79SR/6LqKpj5j1GtS+9jUM59RdgtWzVV/924cuVS2/PCwiUyiULYlJIaT5s2rVPH55/fMcjbr4TdPrsq5cyPM44Ja+IVcQeBsO++80ODRP/30g8oOflXUb//vn3/B0Z9CINCpA+rnb4l7ClTxtPwEUPCjsFD+sskCmGHYeDSpfd8Tdj6Dd2wZZXAEHbPTr9QivfgMz8JG3e9X2V1vnnZT1WdUPdlVW4slONbwm7VqqlMlBCzZwwIYZfM6yASiZ3Y/TeKPJs2+k/P8xGpXLf41NRf0Z8vP2LUe+3VHz+UOt3a46c4IewAkCLstevWrabjx1+nGzeu0tWrF+nw4f00cGCWI5gTk6oZJqU33jhEH354hc5fOEu7dm2lHj0zHfOsWrWctm3fROPHj6KatZIoP38enTjxBt28eY3efPMw5Tw20DEvQF2/QW3atXsbvf/+Kbp16zpd+/3v6NSp47Rq9Qpq2Kiua94pUyfQ/gMvGX1D/7B4OG78KNc8+o1UEsLu1q0jbd36jLFoiT5ifGGKi0+o4rlevQ1ez0uisJt1rEKjC+Ip/5VEKjiSRFM3JVDWhOoUF+9O1GnNqtDIpXG07FAiLTmYSMPy4qhuemVq07sqDZpVnXqPcbehs3nC6yJgrdrJlLdoroGXK1fOGzgABjZvftoVe9ax40VOELc1zun3hNzRtGXLBnV0zmznOa9TmX67LoTtc8JesSKfvv32y7DFNV5wO3BgXxgo27VvSZ99dts2z3ffPaC1T/46LA+A+fXX94w858+fodu3P7TNv2xZnm3eGTMmEcrmdlnDL+59YpsPDwZ4eljT8++33j5KySlxtnn1m6m4hA0C4Tqs4Sef3KTWbZpHrFOvvzjnxSVskKzdgiWuPXEyieqkV7Zta9s+VWnbjfCFzmevJhukj/w4d2o7FDUWGnF8cCCy0gXurGNp/Q3h4VSffv2tnSFlP6Dnf3jKc/Hiu6b6C2Jwvcu3hJ2XN4cWL55vHNOnT6QhOQM83bj6pAf9fP36J0wAhPKECgWJMSGfOfO2CcxQh1h44xvl009v0ZEjBw3VqxPqzFlTTPkwVkzYnPfOnRt09Nhr9NFHH6jykMaqQFNrJJgeKlCrBw/uo/37X6TLV84bRH7v3h/C6kOdaD/X99VXX9Dxt44Y/dPbcvToq7Z59fktDmG/9NLzqk48DE+eOm4oery9cFuwiGntp15fac6LQ9h9c6srst5+M4XgbTLt2QRa936yur7uvXDSrZlWmZCeiX754SSauC6eVp9IUtciEXbexH9ShP3qxsj268wu7dX44Q0LON2zd6cxp7roWP1EQcT53LQkZMfesuynEdNjPoSwH7L6jOQlArXZvkMrT5NXmhvKD3lhQmCQ/+lP92nEiCFh/cZ47N69zXQd15h0YJrQSWf48MFKBd+9+7EpH/qsk+Rrh14xxePm43JhMtHHaNbsqSru9dcPmOKQDn2xc8fUFRkIXTebNGvWkL788q5RLh40TZo2CCtXb4NXwoZy5gcX6oS5SS8H48n9fHrDWlOcnq40514JG+aOjZeLiBnk27xzyFQTl1CJYOJgQu46tJqprZPWhzxRhi40v6HMfT5B5XNT2Pri36rZkd35GqXXMwQF7mPr+GBugWOMrdPblp4nd2jIlfC1TZEfFsgrhF1OhA11DfvlsGGDaOLEMVRQsFi5+MGtr07d1DBA6JMdC+dQJkwcGzc+5bm/UDacD6RnHYtz506r+D5Z3U3xTNh4UMBUoedFWi7XqpAKVy5VcbCD6/ncznWlC7unNS3q4Tpha7bG67+9EjZs8Vymtf8oT39buP3xR6516vUX59wrYcOkwYQ8a3tCWFvqtwh5m8BGrbdhy/UidW1HyLUbVlbl2sVzOfs3/EQp7Jys0u88xBoBjz3X4RRmNA2ZY97d+9emvjnlEcJ+yIQNW2WDhnXCJicpuTpNm5arSBsmEqdJi5XrFy6cNcANNYgFRK/9evDgcyMfzBl2eebNn6lumvkLZpnSMGHDfm3NCwLnm82q6uFqyXEwayxfvojS6tcKK8NaJnYqcj79TYDTYQGL43Gz83W70Cth6w80vDW8884xdWCBFQf6gHrx4LKrq7TXvBJ2v8khc0iH/vY7ItefK1LgT18ImUXikyopQp5pQ/RoP8wokUwihzeHCDury889jwV2oS5ZutB4+8O8nT79lnGwGQ9jiwej2zim1f2lelic3/dXrmm5HCh8mGX4sIoOThfk0Fc2bLeBBJmz0kboljYW4hjcMAsUpz/8ug8Cs8s3aHA/RYLbtm00pWHCxqKjXV4mz337XgiLh92a4zmELf3YsUNhZgcum8nzm2/+GFYep+H+XLt2yTEN0nolbCZjbmOksDgPS25zpNArYY9dFTJrII9duYXHimzSWFzk+PQ2IeU9ujBeXed4hPA0iUTYO1f+vSJN2LP1/E7neJizKc9tbOvWq+FaHr4lwgueb2z/W9e0Tm2JxeuBIWwM/rTpE5XKrlHT/AoYa5PDShnE7bVveKjxTWJdjOQyunbrqNK8/PIeU9lM2FC+nF4PuWw7woZCXrOmkLjdnBYhSPfFF3eHlQk7OuLdHkogc6SJZJ7wStj8AECdO3ducT2ee+5Z0xqAPhalOfdK2FhcZJNIrQb2niBLDoTs2NymFl1CppTh+Wb7NafBImQkwl4562eKNPeu+buw+eOyONQ9bzDOeEuEeyZcRXFcv35ZYS/SG9jqOaG6X3gict3chlgPA0XYWOziLet4/YnlyfGiPu36z+oGPtB28aNHD1M3jdW9rzSErdfF/s28XZzJ+9FB2aY2oY2IczM9cF74ket1WM+9EjYWGlGml4Uvax36byhv/dDjIp17JWyQLRO2vuCol89eH5t/H1LYqXVCNurJG+wVNtwBIxF278yfK8I+91JkswS/vQBHLTIah80X3rZ4PiMRNhYaWWHj+yJ6nyvyeaAIe968GYqw7WyesTSRsKUyuOFN4bVvICLkc/qmhu4qmDtxjKncsiJsva1wQ+R+YFODHqcvQlm9NZAOGx84L9wE9bzWc/blhrJzwwZcI1EmHhIlNXfAv5fbxWHjJvVd26e3F37TTMRjVtoTKtL3HFVNpXP65giIGmWtPROyYSMvu/T9+rh58Rhx8DDZ+pHzoqTeVnw/BMSJ74no163nIGAeC7u9AUivm80iEfbVgz9WhF2zxn+51s1tgaCDCygfVnxzuiCHviJstxtNd/mDf3aQB91L2xcvWaBuAJCRUx7rmwbsz3zjwI3Pmg9+2RxvJcloEPbUabmqvj17dpjas3btShW3d+8uUxzaDddCbuui/Hlh8XrfYKbhtG47MvXXdpzrZVjPnTbs4C2P6+LQziPHWp7+mwnbjlA5XQPNC8QuXefBIUKfvcO8iMc2atTTqLXZ/t1nXGgx081LBO24fqjos6rYcZiY6PzhJ32BGA9F7gOH2JXLY4UwEmF/e67oQfHFSfcHBZePcN/Le0x1QCzo8bFw7ivCxmLi5CnjqW27DKpdu0gxYMW5X79eBHc+Nof0dNleHQuTwn3AjjsGOTZ36As1WAnHlnOrrVp3v8MrKm9Fh5rENnUuz85OXVLChmpHW+HSp6/Mo269D2PGjjDdQCBErhPKWPda0f3JYW92e5hjvFA29w1mDxA8cIQDZMJjinHgjUWoE3ZsXWnD33vHjs2GXR1xnE8Py4Kw2SQBQp2xNYEat6tC9ZpWJrjc6XXpvta5T8Ub6hjxMJGw6x7KgIufnq91z5AdGyo8c3A1qlW/MoGsWX0jXyTCnvF46HOnq+e6+2KzSQTzAN98HlfsIeB55jlyI2z9E6vr8/7B1C+9j9ZzIeyH7NbHhOwWTp06wfMEWic0aL+zs3sSL7ox0AF8tlPjmpWw0UeQO6dHaC0DGxg6dGwdNo58U9mROcrlMq2LjjB1cBxClGOt02nRUPfhRl70Te8fri2wuB86zaO+U1Fvj1W9j3p8aFgdIBtrvdEkbN3HGsTJB8hU7x+IXN9ejnidqJFv6kazuub807eEFi25fA55Q04kwjbm/XyR2n1wxv3PC3RzG88lb5bBbzx4eV7cCPv2saI/MYCqx4eguD+RQpjNuHyE2GkbKU/Q4n2lsOfMmaZUtJW0ob579uoScxMQCTDYIYYFNx2IfA4labfFHGViowkUJKflEMSZ0bKJ7TiyQrJ7CKBMLsPq8QHbIbshchoO0QbYqtPSatrWiXLx0R5+WHA+hPA4sdvh6TRm+EY27JdWTxWrKQb5sSjGi556nThHmy9fPuf4ca3S2rC5/a17VaU1p5LCCJnjOcQHnJ48E9qKzqQL8sYHnDidXYhvcD99MZT3yXeTDZXN3iUbLoXePuzy49r2gpB736iB/+ZaH8baijs8CPHhMd0c5YQH/BUZLzYe3Vo8dz7dRo557D+gj2tbnfrr5+u+ImwMFF6jYA/s2KmN8Trfrl1GhdjZGAkkGJesvj2MDQkgaZhEIuWBGaF3n25GHpCqm6qJVJaXeNyEsJvDHAEbfE7OAFeitpYJ8wU29uDBbbe92Zq+LH7DLIMbGx+1wms8xtjJdl0W9ZWmjBp1K1PHgdUMwoWvdaQv9el1JaVWosTU0Jf9sEgJ4i84Gr4oqefDeUJCJWKbMmza1njrb+AMJipsoAL+rPFuv089X/TRJyx21q3jbbER5eH+0B8UH3xwoVj1urXJT3G+I2w/DY60JXSDy1jEzljoW9NhNvEyt/Mn/LNSvtH6E148GPg72Pj4k5d2cRp9DQPquleMvo0LYT9kOz0DTMLYIUC/zmXevkTC1nRspGE13iCjiuECyGYVpx2Ufu2TU7tgr2bTFjbsOKUL+nUhbCHsmAV30G/O0rafzR5MzvriJa7hvyVLW4df8mOtA26iOKL5LfPy7q8QthB2zNy05X0z+a1+bMphbxAmbYRYhOw2zPsHxfzWr4rcHiFsIWwh7BjHQEJSJYKnSaNWVZQfd0UmvSD3XQg7xm/WIINT2i52fsGAGQNC2ELYorAFA4KBgGBACDsgEyVKw6w0ZDxkPCoiBoSwhbBFXQkGBAMBwYAQts8mqknjWiSHjIFgQDBghwEhbCFseUDIQ1IwEBAM/D+nXWiJNVuqPQAAAABJRU5ErkJggg==;" parent="Lf4OAfzkMTAFU_OsHtha-1" vertex="1">
                    <mxGeometry x="40" y="40" width="320" height="167.03" as="geometry"/>
                </mxCell>
                <mxCell id="_CIb3tuUt3euTQ0hKzxm-0" value="Example - 1" style="text;html=1;strokeColor=none;fillColor=none;align=center;verticalAlign=middle;whiteSpace=wrap;rounded=0;" parent="Lf4OAfzkMTAFU_OsHtha-1" vertex="1">
                    <mxGeometry x="40" y="320" width="160" height="20" as="geometry"/>
                </mxCell>
                <mxCell id="_CIb3tuUt3euTQ0hKzxm-1" value="Memory" style="rounded=0;whiteSpace=wrap;html=1;labelPosition=center;verticalLabelPosition=top;align=center;verticalAlign=bottom;" parent="Lf4OAfzkMTAFU_OsHtha-1" vertex="1">
                    <mxGeometry x="400" y="350" width="280" height="160" as="geometry"/>
                </mxCell>
                <mxCell id="_CIb3tuUt3euTQ0hKzxm-2" value="a" style="rounded=0;whiteSpace=wrap;html=1;" parent="Lf4OAfzkMTAFU_OsHtha-1" vertex="1">
                    <mxGeometry x="410" y="370" width="120" height="40" as="geometry"/>
                </mxCell>
                <mxCell id="_CIb3tuUt3euTQ0hKzxm-3" value="10" style="rounded=0;whiteSpace=wrap;html=1;" parent="Lf4OAfzkMTAFU_OsHtha-1" vertex="1">
                    <mxGeometry x="550" y="370" width="120" height="40" as="geometry"/>
                </mxCell>
                <mxCell id="_CIb3tuUt3euTQ0hKzxm-4" value="Creation Phase" style="text;html=1;strokeColor=none;fillColor=none;align=center;verticalAlign=middle;whiteSpace=wrap;rounded=0;" parent="Lf4OAfzkMTAFU_OsHtha-1" vertex="1">
                    <mxGeometry x="450" y="520" width="190" height="20" as="geometry"/>
                </mxCell>
                <mxCell id="_CIb3tuUt3euTQ0hKzxm-5" value="undefined&lt;br&gt;10" style="rounded=0;whiteSpace=wrap;html=1;" parent="Lf4OAfzkMTAFU_OsHtha-1" vertex="1">
                    <mxGeometry x="40" y="550" width="320" height="80" as="geometry"/>
                </mxCell>
                <mxCell id="_CIb3tuUt3euTQ0hKzxm-6" value="" style="shape=image;verticalLabelPosition=bottom;labelBackgroundColor=#ffffff;verticalAlign=top;aspect=fixed;imageAspect=0;image=data:image/png,iVBORw0KGgoAAAANSUhEUgAAAWwAAAC+CAYAAAARHjUpAAAgAElEQVR4Ae19d5gVVZq+s7MzG+bZnZ3NO/M8OzvEzk1uQhObnJoMTRMEWqLEJufUNLGbAUFBBEkSFEZxBBQEFJWokgaEQeEH4ijKIOqou7+d5/s9b/XvO/dU3aq61eHSVbe/P+o5devkc956663vfKfuI9XjKpEcMgZ+w0DnzPZUULjcOBo0qONbjLbIaELr1z9ltHPs2McpPqGKb9vqtzmW9hSfdx6RQSv+oMmYyZgJBgQD5YEBIWx5wxBFKBgQDAQEA0LYAZmo8niaS52iIgUD/sKAELYQtqgrwYBgICAYEMIOyESJ0vGX0pH5kPkoDwwIYQthi7oSDAgGAoIBIeyATFR5PM2lTlGRggF/YUAIWwhb1JVgQDAQEAwIYQdkokTp+EvpyHzIfJQHBoSwhbBFXQkGBAMBwYAQdkAmqjye5lKnqEjBgL8wIIQthC3qSjAgGAgIBoSwAzJRonT8pXRkPmQ+ygMDQthC2KKuBAMRMdC1/S/o1rEfGUeDer+MmL4kZBYfX4k+PFRUx9Dsf49KHSVpl5/yCGHLzRrIG6N2nRQ6++4Jeu+9k6bjt7/d68v+9JtUnRb8JjHsyOha1ZfttZLUzSM/IrryCD04+xdRbe+dN//SqOf+6R9GtR5r/4Ly27eEnZBYlbL79aJ582YYR27uaJlAebgoDDRvkU7ff/9V2HH//mcqjZ9uwvl7Eum5WylhR98J1X3ZXn3sxuf8q0GiIOy1838W1fZOHfkvqq6Cmf8Y1br0Pgbl3HeEnZwSR4MG96OCgsW0cuVSdSxdulAmTwhbYSAlNZ42bVqnjs8/v2OQt18Ju312VcqZH2ccE9bEK+IOAmHffeeHBon+76UfUHLyr9QcRIvkvn3/B0Z9CKNVR1DL9RVhN2xYJ4yombSFsGWRx+0mu3TpPV8Ttt72hi2rBIawe3b6hVK8B5/5yUMh0M3LfqrqhLrXx66in/uKsFtkNFaKOi9vDnXs1Iby8+cZ14SwhbDdblYh7Ojg48Tuv1Hk2bTRfz4U8kxN/RX9+fIjRr3XXv3xQ6nTDVt+ivMVYTdpUt+wV7dp01xNkhB2JYK9dt261XT8+Ot048ZVunr1Ih0+vJ8GDsxS42QFVWJSNeNB98Ybh+jDD6/Q+QtnadeurdSjZ6ZjnlWrltO27Zto/PhRVLNWkvGwPHHiDbp58xq9+eZhynlsoGNe1F+/QW3atXsbvf/+Kbp16zpd+/3v6NSp47Rq9Qpq2Kiua94pUyfQ/gMvGX1D/7B4OG78KNc8ep9LQtjdunWkrVufMRYt0UeML97oov2/jCVR2M06VqHRBfGU/0oiFRxJoqmbEihrQnWKi3cn6rRmVWjk0jhadiiRlhxMpGF5cVQ3vTK16V2VBs2qTr3HuNvQ2TzhdRGwVu1kyls018DLlSvnDRwAA5s3P+2KPX0ucc6LnCBua5zT7wm5o2nLlg3q6JzZznNepzL9dt1XhG03OBWdsFesyKdvv/0ybHGNF9wOHNgXBsp27VvSZ5/dts3z3XcPaO2Tvw7Lg7H/+ut7Rp7z58/Q7dsf2uZftizPNu+MGZMIZXO7rOEX9z6xzYcHAzw9rOn591tvHyWsa9hhQ79WXMIGgXAd1vCTT25Sa0006PWUxXlxCRska7dgiWtPnEyiOumVbcenbZ+qtO1G+ELns1eTDdJHfpw79QmKGguNOD44EFnpAnfWsbT+hvBwqk+//tbOkLIf0PM/POW5ePFdU/0FhUs85dPr9fu5ELaPF/LWr3/CBEAoT6hQkBgT8pkzb5tACXWIhTe+UT799BYdOXLQUL06oc6cNcWUD0Blwua8d+7coKPHXqOPPvpAlYc0VgWaWiPB9FCBWj14cB/t3/8iXb5y3iDye/f+EFYf6kT7ub6vvvqCjr91xOif3pajR1+1zavfXMUh7Jdeel7ViYfhyVPHDUWPtxduCxYxrf3U6yvNeXEIu29udUXW22+mELxNpj2bQOveT1bX170XTro10yoT0jPRLz+cRBPXxdPqE0nqWiTCzpv4T4qwX90Y2X6d2aW9Gj+8YQGne/buNOZUFx2rnyiIOJ+bloTs2FuW/TRiesyHELYPyKyiKmyYEBjkf/rTfRoxYkgYaKG+d+/eZrqOa0w6ME3opDN8+GClgu/e/diUD4DXSfK1Q6+Y4nHzcbkwmeiENWv2VBX3+usHTHFIh77MnTs97LquyEDoutmkWbOG9OWXd41y8aBp0rRBWH69DV4JG8qZH1yoE+YmvRyMJ/fz6Q1rTXF6utKceyVsmDs2Xi4iZpBv885VVHviEioRTBxMyF2HVlNxaNuk9SFPlKELzW8oc59PUPncFLa++LdqdmR3vkbp9QxB0bJVU1Nb0B7MLXCMsXV629LHNHdoyJXwtU2RHxbIK4QthB0GPB1U0TyHMmHi2LjxKc/tgLLhfCA9axvPnTut4vtkdTfFM2HjQQFThZ4Xablcq0IqXLlUxcEOrudzO9eVLuye1rSoh+uErdkar//2StiwxXOZ1v6jPP1t4fbHH7nWqddfnHOvhA2TBhPyrO0JYW2p3yLkbQIbtd6GLdeL1LUdIdduWFmVaxfP5ezf8BOlsHOySr/zEGsEPPZch1OY0TRkjnl371+b+uaURwhbCNsTUJwAVJrrFy6cNcANNYgFRK9lPXjwuZEP5gy7PPPmz1Q3zfwFs0xpmLBhv7bmBYHzzWZV9YOH9FdxMGssX76I0urXCivDWiZ2KnKZ+psAp8MCFsfjZufrdqFXwtYfaHhreOedY+rAAisO9AH14sFlV1dpr3kl7H6TQ+aQDv3td0SuP1ekwJ++EDKLxCdVUoQ804bo0X6YUSKZRA5vDhF2Vpefex4L7EJdsnSh8faHeTt9+i3jYDMexhYPRrdxTKv7S/WwOL/vr1zTcjlQ+DDL8GEVHZwuyKHYsH3wULIDEIMbZgG7eKdr/LoPArNLg01JTILbtm00pWHCxqKjXV7Ot2/fC2HxsFtzPIewpR87dijM7MBlM3l+880fw8rjNNyfa9cuOaZBWq+EzWTMbYwUFudhyW2OFHol7LGrQmYN5LErt/BYkU0ai4scn94mpLxHF8ar6xyPEJ4mkQh758q/V6QJe7ae3+kcD3M25bmNbd16NVzLw7dEeMHzje1/65rWqS2xeF0I26eEzUoZxO0VePCm4JvEuhjJZXTt1lGlefnlPaaymbChfDm9HnLZdoQNhbxmTSFxuzktQpDuiy/uDisTdnTEuz2UQOZIE8k84ZWw+QGAOnfu3OJ6PPfcs6Y1AH0sSnPulbCxuMgmkVoN7D1BlhwI2bG5TS26hEwpw/PN9mtOg0XISIS9ctbPFGnuXfN3YfPHZXGoe95gnPGWCPdMuIriuH79ssJepDew1XNCdb/wROS6uQ2xHgph+5SwvahPO3CyuoEPtF386NHD1E1jde8rDWHrdbF/M28XZ/J+dFC2qU1oI+LcTA+cF37keh3Wc6+EjYVGlOll4ctah/4byls/9LhI514JG2TLhK0vOOrls9fH5t+HFHZqnZCNevIGe4UNd8BIhN078+eKsM+9FNkswW8vwBE2wentxDnetng+IxE2FhpZYeP7ItayKupvIWyfEjZsqQxueFN4BSiICPmcvqmhuwrmThxjKresCFtvK9wQuR/Y1KDH6YtQVm8NpMPGB84LN0E9r/Wcfbmh7Ozs4ZwerpEoEw+Jkpo74N/L7eKwcZP6ru3j+hHCb5qJeMxKe0JFup6jqql0Tt8cAVGjrLVnQjZs5GWXvl8fNy8eIw4eJls/cl6URBo+8P0QECe+J8LX7EIQMI+F3d4A5NHNZpEI++rBHyvCrlnjv1zr5vbAewkuoHxY8c3pghwKYWvg9NNELl6yQN0AICOntmGhRY+D/ZlvHLjx6XE4h182x1tJMhqEPXVarqpvz54dpvasXbtSxe3du8sUh7bCtZDbuih/Xli83jeYaTit245M/bUd53oZ1nOnDTvYDcl1cWjnkWMtT//NhG1HqJyugeYFYpeu8+AQoc/eYV7EYxs16mnU2mz/7jMutJjp5iWCdlw/VPRZVew4TEx0/vCTvkCMhyL3gUPsyuWxQhiJsL89V/Sg+OKk+4OCy0e47+U9pjogFvT4WDj3HWHXS6tJ7Tu0Ugc8DnCDwL9Yv450sTABbn3AjjsGOTZ36As1WAnHlnOrrVp3v8MrKm9Fh5rENnUuz85OXVLChmpHW+HSp6/Mo269D2PGjjDNGQiR64Qy1r1WdH9y2JvdVDPGEGVz32D2AMG3bZdhHCATHmeMA28sQp2wY+tKG/7eO3ZsNuzqiON8elgWhM0mCRDqjK0J1LhdFarXtDLB5U6vS/e1zn0q3lDHiIeJhF33UAZc/PR8rXuG7NhQ4ZmDq1Gt+pUJZM3qG/kiEfaMx0OfO109190Xm00imAf45vO4Yg8BzzPPkRth659YXZ/3D6Z+6X20ngthl4P6HDr0UYOgcVO4HTk5AzxPpHVig/I7O7sn8aIbAx3AZzs1rlkJG30DuXN6hNYysIGhQ8fWYePHN5UdmaNcLtO66AhTB8chRDnWOp0WDXUfbuRF3/T+4doCi/uh0/zpOxX19ljV+6jHh4bVAbKx1htNwtZ9rEGcfIBM9f6ByPXt5YjXiRr5pm40q2vOP31LaNGSy+eQN+REImxj3s8Xqd0HZ9z/vEA3t/Fc8mYZ/MaDl+fFjbBvHyv6EwOoenwIivsTKYTZjMtHiJ22kfIELd53Cvuxxwa6EjWT+JAh/WNuMuzAgx1iWHDTgcjnUJJ2W8xRDjaaQEFyWg5BnBktm9iOHSsku4cAyuQyrB4fsB2yGyKn4RBtgK06zeWNCB/t4YcF50MIjxO7HZ5244Rr+EY27JdWTxWrKQZpsSjGi556nThHmy9fPuf4ca3S2rC5/a17VaU1p5LCCJnjOcQHnJ48E9qKzqQL8sYHnDidXYhvcD99MZT3yXeTDZXN3iUbLoXePuzy49r2gpB736iB/+ZaH8baijs8CPHhMd0c5YQH/BUZLzYe3Vo8dz7dRo557D+gj2tbnfrr5+u+I2w/D1Z5tg2vl1l9exgbEkDSMIlEag/MCL37dDPygFTdVE2ksrzE4yaE3RzmCNjg8RbkdGPalQcTBjb2zJkzjey2N9vlKe01mGVwY+OjVniNxxg72a5LW1dp89eoW5k6DqxmEC58rSN9qU+vLym1EiWmhhYTsUgJ4i84Gr4oqefDeUJCJWKbMmza1njrb+AMJiqYM4E/a7zb71PPF330CYuddet4W2xEebg/9AfFBx9cKFa9bm3yU5wQdjmYffwEAGlLiMQqyljoW9NhNvHS7/kT/lkp32j9CS8eDPwdbHz8yUu7OI2+hgF13atXl2Ll53L8HgphC2HHJLD9fuM9jPbl7UskbE3HRhpW4w0yqhgugGxWcdpB+TDaV5Z1wF7Npi1s2CnLsv1UlhC2EHbMgttPN1p5tIXNHkzO+uIlruG/JcujXdGoE2sdcBPFEc1vmUej7cUpUwhbCDtmbtriAL8ipMWmHPYGYdJGiEXIbsO8f1CsIoxVUPoohC2ELYQd4xhISKpE8DRp1KqK8uMOCkFJO81rLELYMX6zCuDNgJfxkPEIMgaEsIWwRWELBgQDAcGAEHZAJirIqkDaLqpWMFA2GBDCFsIWdSUYEAwEBANC2AGZKFEoZaNQZBxlHIOMASFsIWxRV4IBwUBAMCCEHZCJCrIqkLaLqhUMlA0GhLCFsEVdCQYEAwHBgBB2QCZKFErZKBQZRxnHIGNACFsIW9SVYEAwEBAMCGEHZKKCrAqk7aJqBQNlgwFfE3ZScnXffkxeAFg2AJRxlHEUDHjHgK8IG3/xhH/8mD9/JhUULFZ/FYbzefNmUKtWTeXVTd4IBAOCgQqLAV8RNkiZ/7PRKRwxMqfCTpYoEe9KRMZKxioWMeBLwl66dCENGz6YunbrSO07tKKRI3NMRN6xUxshbVFZggHBQIXDgK8IG/+YnpnZznYSQN6sumfOnGybJhafqNInUYqCAcEAY8BXhM2NcgrZro1/Y3ZKI9cF3IIBwUCsYiCQhL1sWZ4QtrwOCwYEAxUOA4Eh7HppNZVJZPKU8RVuomJVMUi/RA0LBrxjIDCEPW1ariLszC7thbBFXQkGBAMVDgOBIGx9wXHGjEkVbpJEgXhXIDJWMlaxjAHfE3aj9HpUWLjEUNdYdKxRM1EIW5SVYEAwUCEx4GvCrlM3lVasyDfIGqTdvEV6hZykWFYM0jdRxIIB7xjwLWFDSWMDDfted+jQSshaVJVgQDBQoTHgS8JOTomj/Px5iqx79OhcoSdJFIh3BSJjJWMVyxjwHWEnJlWjBQtmKbLOzu4pZC2qSjAgGBAMxFUiXxF2fEIVmj17qiLrQYP7ySTJjSoYEAwIBv4/BnxF2JMnj1NknZc3hzp0bG1/iD1bACwkJhiogBjwFWHjGyG8yBgphJ07lm1V0jexxQoGBANWDPiKsPGNkEhEzfFC2AJmK5jlt2Ai1jHgK8KO9cGW/gmhCAYEA6XBgBB2BbSDlQYwklcIRzBQfhgQwhbClrUAwYBgICAYEMIOyESJqik/VSNjL2PvFwwIYQthi7oSDAgGAoIBIeyATJRfnvDSDlGbgoHyw4AQthC2qCvBgGAgIBgQwg7IRImqKT9VI2MvY+8XDAhhC2GLuhIMCAYCggEh7IBMlF+e8NIOUZuCgfLDgBC2ELaoK8GAYCAgGBDCDshEiaopP1UjYy9j7xcMCGELYYu6EgwIBgKCASHsgEyUX57w0g5Rm4KB8sOAELYQtqgrwYBgICAYEMIOyESJqik/VSNjL2PvFwwIYQthi7oSDAgGAoIBXxM2/lUmJTVewBQQMPlFhcR6O+LiKss9UUHvCV8RdouMxjR+/CjKz59HhYVL1N+FFRQspgULZlF7+fNduVFj4Ebt1WYMrRn3O3p64k1aP/EGpSanRpzXlo260fJRJ2jHzG9o7zyi52Z+RUtHvEVN67ePmDfWH2AVqX++IuyRI3MUSfN/N1rDceNHCUBjgLQq0k2GvkIVD+w0i7ZOv2cQLkiXjzo167tiul2TLNoz988qPedD+MLc/0sZDTNd81e0sY7l/vqOsKGmJ04cQ1lZ3Q1F3aNnJk2dOsGkuLt17yQAFdIOFAa2z/jSlnBBum6EnZKcYiLrqf13UI/Wj9PMR/eo8p6f8z+UkFA9UOMRy6Qazb75irATk6o5gq5580ZKfc+YMckxXTQHS8oWb4GSYoAV8q5Z39LIHispf9hRRbhuhD2s2zKVLrfvJhPul4w4ruL6d5xhiitpOyWfvzHuK8KOBJZly/IM0kYYKW3Q41vPXkRt5i+jOh07Ova1VpvWRhqkq9myhSldfEocpQ8ZSplPbaXee1+nfkfOUZ+XjlHnNc9SjRbNTGmtY5VQI0mVW6t1K4pLqEJpPXpSh4KnKPvQWaO8ljPmG9eteYv7Oz6hCo0ZO4IOHtxHFy6cpVu3rtP5C2fphReeM64Xtzy/pt805RPK6ZJP8fFVjbFfkHNQka0bYSMfVDgIX1fRNVNrGeYQNo+sy73uOKfde3SmLVs2qAPj7ddxkna5PzACQ9hx8ZUJ5hLYtLEoGesT+9jlL2jo1fuU+dQ2x772P3reSPPYB/couUE9lQ4ki2vI73S0nDZXpbeOZYPs/ipf09ETaODbH6jfenmtZi10LMNaptPv+/c/o++//8rxOHnyTYK3kFP+oF73QtgJCdUUqVsJecmIN1Uck7bTWKxbt9o0vmfOvB1z4+nU91i7HgjCrl07mcZPeFyZREaMGBLzgBtw/LJBkn0PnrTta8P+jyoS7bTqGVOaFpNmGHEg7az971CX9TsMZT3gjUsqD4g3pVEDUz4Gd7tFhSrdoLM3jfOc392l7NfOUNYrb1POhT8Y1+pn9bXNz+V4Cb/55o8Gmdy9+zGdPfsOvfjibjp8eD/98Y+fKpI5d+50qetBW7rG1aLd1XsU6+gQV6NM6raOhRfCrl+nqSLlWYN+o9rRqfmj6rq+iOnkbSKE7a5arXPj59++JWwsPE6ePI4WL56viBrqGu59sai4rCDpufOAQYqD37+tblQ9zcB3rioihQlDj2vYbwA1Hz+ZYBbRr+O80683GPlA2E1HjQ2LRxqYUHQlnfnkVopLCi1qwUTSduEKSqhprtdal5ff+/a9QI8Oyg5rB0wlN25cVaTdKD30BuGlXLs0o6qn039Xm1CsY1B1dw8Ou3q8XPNC2G2bZClizu270RgjqG649EFVLx7+hmnx0cnFTwhbCDvsBvMCUq9pYP6wuvPh9/TpE8ltYdJr+UFIp6vcuMQiuye3u8nwxxWhFtcsAVXNZJwxZbbtPA5+9/+oNFb1zm14GOH8BbMUYZeFO2enuBr0TPXMYh1t4lJsx6i0/fdC2H3aTlCEPbz7cqMdk/ttM67BMyQ1pQaNz3papclsYf/mKYQthB0VEOs3weQp4w13vnnzZijbNUg7L28O1aiZGPX69baUxzkWDJlYa7drF+pvfGViMwXUN9SuXfugiFFG6zn5lLluO3Xfts84sPDI5TYalBOWF6qc41GPU/l2dZb0GtT01Gm5tHXrM3T06Kt0+vRbxnHt2iVF2PPmzwxra0nr80M+L4Sd3WGqIuPHui6mJmlt1G/EoR+je61R17q3Gmk7RrVqJ1Nml/bqaNiorm06P4yLtMH94eJbk4g+cVDV+qYaKG09PhbPU5s2VsTZbEyu6m+LidPVdShta9+hxtsuKiTYnJl4ncKUxg3D8sMbhNO3X/ZEWLy1vtL+hovml1/eVcTstACZt8h5kbS0bSiP/F4IW7dVT8jaYOyMhCkEuyS5zfDL5kVH7Ibk6xK6E19QxycQhM2DO3fudGUqqVmr9PZTLtevIXt6wO6MNoKMh5y/YxDqgOOhm1a1P76y4brHhDvk3MfU7dk91GHFk9Q2r8Bw1WNzB7xQVD5tE07ruYsVYddsmWGbxi5fSa5l9e1B3333QJE1bNavHXqFduzYTNu2bzLUNhN4WXgGpcRVpeZxScU6kuPs32BK0l89jxfC1hU1/LdBzHDvS6uVruZlfs5+Rdhu7oF63XIeXDIPFGEPGpStCLtVa3df4lgA5aDTHxrkCTMG+gPfbCZjKGFrH+GCx/G99hwyLRQiLcwb7C4Il0BrfvzmxU4nQrfLU9JrMH0wIdvZqOfMmabiy4Kwg7bomJKcrMiYVfSI7itM8wa1zXHyUajgErHXeyhQhD18+GBF2BXhQ1C9f3PEIOBBpz+i+JR4yrn4WRGBv3zcdNPyZMMFkAnbzoNDX6yEXZvz6SE/JPofu2Abr6ct7fmnn94yCPnOnRu2de3du6tCEzbGl5U1SHnj5I9N44RNOLyDElvfneajbbsM420F6wM4sAjplFau+5v0fUXYbp9STUquTrzTEYuPFcEkgp2FIGCYRtovXa3IuEaL5rY3HJOtoY7jzZ/gTEqrrQgfZTYbG74OAJMLE36XDTtt6yjLG/rzz+8YhAxfbCw86mWn1kgg9tGGCi8LhQ3zRuO4hGIdSeVoEsF4TB+4Wyloq7ru236yioONWx8//Xz06GHqwYexdHpA6nnk3J/E7RvCxsIiiHjmzMmUmdmO6qXVJLj3wee6XbsMwzsE8Tjgi10RANV01DhFoEykXTe94Nj3vgdCChvmE/bwSOvVm2DP5jIQ2pF+nU6dVJrmE6Y41lNWY48NMWwSgZpOS6tp1JnRsolBKhxXVoRdVu0uSTnY1IKPNvGxdvwVRbb4ih9fb5Xe3TTujepmqHT4Mh++3If64aON32wOcbNfC2H7k3xLgiPfETaTslOI7ekg85J0Nmh58K0QnWShtKGUnfrRbOwkc/rLXyibNcph+zXKsSuj5dQ5Kj+2t9ulKctr2dk9FWEzOX/11Rfqmr5tvSwUdlm2vbhldW4+SJErk6xdiO9jW8vGphm7tHxtZI/CsDx6GbkTx6gxxTh//PFHrun1vHLuL7L3DWHjlRi+1ytW5Cs7tZW0c3NHU+060dnI4EdgQiHrhN1h+dqIN1rHwnWmPMgPdY3dj/AswW9sUbfrb5dndhnxToRul6e01+D58/XX90yEAlK5ePFd0gk96G59HZsNdCVdJl/rN0N4fEf3esKkqJEeChsflOI0TqG+FoCxhQeOU1q57i+Cts6Hbwhbb1jdejWoZaum1AXO/pntKL1xWoXZ4aiPQ0nPk9LqUKOBgwkmFf2jUCUtL9r5sHYxaHA/Y40C34mpCJ8eKOmYNmvQkfp1mG5sovFaBr6AyG8weDi6rRV5LVPSlQ+x+5KwBQzlAwYZ99gbdzz8dF/3Z555UtS1tu8gaJgXwg7w5AUNbNLeh/9AgH87q2usD1SUb/HEKtaEsIWwRXHFMAY6dW5La9euNI7BQ/rLXAd8roWwAz6BsaokpF8PX43LmPt/zIWwhbBFdQkGBAMBwYAQdkAmStSP/9WPzJHMUbQxIIQthC3qSjAgGAgIBoSwAzJR0X5yS/miDgUD/seAELYQtqgrwYBgICAYEMIOyESJ+vG/+pE5kjmKNgaEsIWwRV0JBgQDAcGAEHZAJiraT24pX9ShYMD/GBDCFsIWdSUYEAwEBANC2AGZKFE//lc/MkcyR9HGgBC2ELaoK8GAYCAgGBDCDshERfvJLeWLOhQM+B8DQthC2KKuBAOCgYBgIBCEPXJkDi1aNNc4cnIGCLgCAi5RbP5XbDJHwZoj3xN2q9bNTP/xOHnyOCFsIWzBgGCgQmLA14SdkFjV+J8//c94hbCDpQhEwcl8CQbKDgO+Juzhwwcb6hrmECZtIeyym3y5kWQsBQPBwoBvCTs9vZ4i6eYt0tW5EHawACaEIPMlGCg7DPiWsBcunG2Q9LhxIwmmEVHYZTfpcgPJWAoGgokBXxJ2dr9eBkEXFCymlNR4IWxZYKqQC0xCqsEk1ch6a6oAABHVSURBVGjOm+8Iu3adFCosXGIQdp8+3YwbVRS2ADeaN4GULfgKCgZ8R9gzZ042yDovb45SVULYckMF5YaSdgpWo4kBXxF2ZmY7Zatu2qyhELaYQhQGonkTSNlCskHBgG8IOzkljlasyDcIe/yEx003qihsuaGCckNJOwWr0cSAbwh7wIA+Sl0PGpRNWVnd1cGLkPAUgakEcT17ZppIPZqDJGXLTSgYEAz4AQO+IezBg/spwmYXPrcQC5N+GEBpg9zIggHBwMPCgG8Iu3fvrrR06ULbY9myPEXmIGqk0xclH9ZgST1yYwoGBAPliQHfELbbIIgNW24SN3xInOCjomBACFs8McS0JBgQDAQEA0LYAZmoiqIgpJ+ilgUDzhgIBGHHJ1RRNuxJk8aKGpCHjGBAMFAhMRAIwpYnrvMTV8ZGxkYwUHEwIIQtSqVCKhUhuYpDcrE010LYQthC2IIBwUBAMCCEHZCJiiWVIH0RdSsYKBkGhLCFsEVdCQYEAwHBgBB2QCZKFEnJFImMm4xbLGFACFsIW9SVYEAwEBAMCGEHZKJiSSVIX0T1CgZKhgEhbCFsUVeCAcFAQDAghB2QiRJFUjJFIuMm4xZLGBDCFsIWdSUYEAwEBANC2AGZqFhSCdIXUb2CgZJhQAhbCFvUlWBAMBAQDAhhB2SiRJGUTJHIuMm4xRIGhLCFsEVdCQYEAwHBgBB2QCYqllSC9EVUr2CgZBgQwhbCFnUlGIiIga7tf0G3jv3IOBrU+2XE9CUh5Pj4SvThoaI6hmb/e1TqKEm7/JRHCFtu1kDeGLXrpNDZd0/Qe++dNB2//e1eX/an36TqtOA3iWFHRteqvmyvlaRuHvkR0ZVH6MHZv4hqe++8+ZdGPfdP/zCq9Vj7F5TfviLs9PR6tGjRXNdj7tzpMpHykKHmLdLp+++/Cjvu3//Ml/iYvyeRnruVEnb0nVDdl+3VCWx8zr8aJArCXjv/Z1Ft79SR/6LqKpj5j1GtS+9jUM59RdgtWzVV/924cuVS2/PCwiUyiULYlJIaT5s2rVPH55/fMcjbr4TdPrsq5cyPM44Ja+IVcQeBsO++80ODRP/30g8oOflXUb//vn3/B0Z9CINCpA+rnb4l7ClTxtPwEUPCjsFD+sskCmGHYeDSpfd8Tdj6Dd2wZZXAEHbPTr9QivfgMz8JG3e9X2V1vnnZT1WdUPdlVW4slONbwm7VqqlMlBCzZwwIYZfM6yASiZ3Y/TeKPJs2+k/P8xGpXLf41NRf0Z8vP2LUe+3VHz+UOt3a46c4IewAkCLstevWrabjx1+nGzeu0tWrF+nw4f00cGCWI5gTk6oZJqU33jhEH354hc5fOEu7dm2lHj0zHfOsWrWctm3fROPHj6KatZIoP38enTjxBt28eY3efPMw5Tw20DEvQF2/QW3atXsbvf/+Kbp16zpd+/3v6NSp47Rq9Qpq2Kiua94pUyfQ/gMvGX1D/7B4OG78KNc8+o1UEsLu1q0jbd36jLFoiT5ifGGKi0+o4rlevQ1ez0uisJt1rEKjC+Ip/5VEKjiSRFM3JVDWhOoUF+9O1GnNqtDIpXG07FAiLTmYSMPy4qhuemVq07sqDZpVnXqPcbehs3nC6yJgrdrJlLdoroGXK1fOGzgABjZvftoVe9ax40VOELc1zun3hNzRtGXLBnV0zmznOa9TmX67LoTtc8JesSKfvv32y7DFNV5wO3BgXxgo27VvSZ99dts2z3ffPaC1T/46LA+A+fXX94w858+fodu3P7TNv2xZnm3eGTMmEcrmdlnDL+59YpsPDwZ4eljT8++33j5KySlxtnn1m6m4hA0C4Tqs4Sef3KTWbZpHrFOvvzjnxSVskKzdgiWuPXEyieqkV7Zta9s+VWnbjfCFzmevJhukj/w4d2o7FDUWGnF8cCCy0gXurGNp/Q3h4VSffv2tnSFlP6Dnf3jKc/Hiu6b6C2Jwvcu3hJ2XN4cWL55vHNOnT6QhOQM83bj6pAf9fP36J0wAhPKECgWJMSGfOfO2CcxQh1h44xvl009v0ZEjBw3VqxPqzFlTTPkwVkzYnPfOnRt09Nhr9NFHH6jykMaqQFNrJJgeKlCrBw/uo/37X6TLV84bRH7v3h/C6kOdaD/X99VXX9Dxt44Y/dPbcvToq7Z59fktDmG/9NLzqk48DE+eOm4oery9cFuwiGntp15fac6LQ9h9c6srst5+M4XgbTLt2QRa936yur7uvXDSrZlWmZCeiX754SSauC6eVp9IUtciEXbexH9ShP3qxsj268wu7dX44Q0LON2zd6cxp7roWP1EQcT53LQkZMfesuynEdNjPoSwH7L6jOQlArXZvkMrT5NXmhvKD3lhQmCQ/+lP92nEiCFh/cZ47N69zXQd15h0YJrQSWf48MFKBd+9+7EpH/qsk+Rrh14xxePm43JhMtHHaNbsqSru9dcPmOKQDn2xc8fUFRkIXTebNGvWkL788q5RLh40TZo2CCtXb4NXwoZy5gcX6oS5SS8H48n9fHrDWlOcnq40514JG+aOjZeLiBnk27xzyFQTl1CJYOJgQu46tJqprZPWhzxRhi40v6HMfT5B5XNT2Pri36rZkd35GqXXMwQF7mPr+GBugWOMrdPblp4nd2jIlfC1TZEfFsgrhF1OhA11DfvlsGGDaOLEMVRQsFi5+MGtr07d1DBA6JMdC+dQJkwcGzc+5bm/UDacD6RnHYtz506r+D5Z3U3xTNh4UMBUoedFWi7XqpAKVy5VcbCD6/ncznWlC7unNS3q4Tpha7bG67+9EjZs8Vymtf8oT39buP3xR6516vUX59wrYcOkwYQ8a3tCWFvqtwh5m8BGrbdhy/UidW1HyLUbVlbl2sVzOfs3/EQp7Jys0u88xBoBjz3X4RRmNA2ZY97d+9emvjnlEcJ+yIQNW2WDhnXCJicpuTpNm5arSBsmEqdJi5XrFy6cNcANNYgFRK/9evDgcyMfzBl2eebNn6lumvkLZpnSMGHDfm3NCwLnm82q6uFqyXEwayxfvojS6tcKK8NaJnYqcj79TYDTYQGL43Gz83W70Cth6w80vDW8884xdWCBFQf6gHrx4LKrq7TXvBJ2v8khc0iH/vY7ItefK1LgT18ImUXikyopQp5pQ/RoP8wokUwihzeHCDury889jwV2oS5ZutB4+8O8nT79lnGwGQ9jiwej2zim1f2lelic3/dXrmm5HCh8mGX4sIoOThfk0Fc2bLeBBJmz0kboljYW4hjcMAsUpz/8ug8Cs8s3aHA/RYLbtm00pWHCxqKjXV4mz337XgiLh92a4zmELf3YsUNhZgcum8nzm2/+GFYep+H+XLt2yTEN0nolbCZjbmOksDgPS25zpNArYY9dFTJrII9duYXHimzSWFzk+PQ2IeU9ujBeXed4hPA0iUTYO1f+vSJN2LP1/E7neJizKc9tbOvWq+FaHr4lwgueb2z/W9e0Tm2JxeuBIWwM/rTpE5XKrlHT/AoYa5PDShnE7bVveKjxTWJdjOQyunbrqNK8/PIeU9lM2FC+nF4PuWw7woZCXrOmkLjdnBYhSPfFF3eHlQk7OuLdHkogc6SJZJ7wStj8AECdO3ducT2ee+5Z0xqAPhalOfdK2FhcZJNIrQb2niBLDoTs2NymFl1CppTh+Wb7NafBImQkwl4562eKNPeu+buw+eOyONQ9bzDOeEuEeyZcRXFcv35ZYS/SG9jqOaG6X3gict3chlgPA0XYWOziLet4/YnlyfGiPu36z+oGPtB28aNHD1M3jdW9rzSErdfF/s28XZzJ+9FB2aY2oY2IczM9cF74ket1WM+9EjYWGlGml4Uvax36byhv/dDjIp17JWyQLRO2vuCol89eH5t/H1LYqXVCNurJG+wVNtwBIxF278yfK8I+91JkswS/vQBHLTIah80X3rZ4PiMRNhYaWWHj+yJ6nyvyeaAIe968GYqw7WyesTSRsKUyuOFN4bVvICLkc/qmhu4qmDtxjKncsiJsva1wQ+R+YFODHqcvQlm9NZAOGx84L9wE9bzWc/blhrJzwwZcI1EmHhIlNXfAv5fbxWHjJvVd26e3F37TTMRjVtoTKtL3HFVNpXP65giIGmWtPROyYSMvu/T9+rh58Rhx8DDZ+pHzoqTeVnw/BMSJ74no163nIGAeC7u9AUivm80iEfbVgz9WhF2zxn+51s1tgaCDCygfVnxzuiCHviJstxtNd/mDf3aQB91L2xcvWaBuAJCRUx7rmwbsz3zjwI3Pmg9+2RxvJcloEPbUabmqvj17dpjas3btShW3d+8uUxzaDddCbuui/Hlh8XrfYKbhtG47MvXXdpzrZVjPnTbs4C2P6+LQziPHWp7+mwnbjlA5XQPNC8QuXefBIUKfvcO8iMc2atTTqLXZ/t1nXGgx081LBO24fqjos6rYcZiY6PzhJ32BGA9F7gOH2JXLY4UwEmF/e67oQfHFSfcHBZePcN/Le0x1QCzo8bFw7ivCxmLi5CnjqW27DKpdu0gxYMW5X79eBHc+Nof0dNleHQuTwn3AjjsGOTZ36As1WAnHlnOrrVp3v8MrKm9Fh5rENnUuz85OXVLChmpHW+HSp6/Mo269D2PGjjDdQCBErhPKWPda0f3JYW92e5hjvFA29w1mDxA8cIQDZMJjinHgjUWoE3ZsXWnD33vHjs2GXR1xnE8Py4Kw2SQBQp2xNYEat6tC9ZpWJrjc6XXpvta5T8Ub6hjxMJGw6x7KgIufnq91z5AdGyo8c3A1qlW/MoGsWX0jXyTCnvF46HOnq+e6+2KzSQTzAN98HlfsIeB55jlyI2z9E6vr8/7B1C+9j9ZzIeyH7NbHhOwWTp06wfMEWic0aL+zs3sSL7ox0AF8tlPjmpWw0UeQO6dHaC0DGxg6dGwdNo58U9mROcrlMq2LjjB1cBxClGOt02nRUPfhRl70Te8fri2wuB86zaO+U1Fvj1W9j3p8aFgdIBtrvdEkbN3HGsTJB8hU7x+IXN9ejnidqJFv6kazuub807eEFi25fA55Q04kwjbm/XyR2n1wxv3PC3RzG88lb5bBbzx4eV7cCPv2saI/MYCqx4eguD+RQpjNuHyE2GkbKU/Q4n2lsOfMmaZUtJW0ob579uoScxMQCTDYIYYFNx2IfA4labfFHGViowkUJKflEMSZ0bKJ7TiyQrJ7CKBMLsPq8QHbIbshchoO0QbYqtPSatrWiXLx0R5+WHA+hPA4sdvh6TRm+EY27JdWTxWrKQb5sSjGi556nThHmy9fPuf4ca3S2rC5/a17VaU1p5LCCJnjOcQHnJ48E9qKzqQL8sYHnDidXYhvcD99MZT3yXeTDZXN3iUbLoXePuzy49r2gpB736iB/+ZaH8baijs8CPHhMd0c5YQH/BUZLzYe3Vo8dz7dRo557D+gj2tbnfrr5+u+ImwMFF6jYA/s2KmN8Trfrl1GhdjZGAkkGJesvj2MDQkgaZhEIuWBGaF3n25GHpCqm6qJVJaXeNyEsJvDHAEbfE7OAFeitpYJ8wU29uDBbbe92Zq+LH7DLIMbGx+1wms8xtjJdl0W9ZWmjBp1K1PHgdUMwoWvdaQv9el1JaVWosTU0Jf9sEgJ4i84Gr4oqefDeUJCJWKbMmza1njrb+AMJipsoAL+rPFuv089X/TRJyx21q3jbbER5eH+0B8UH3xwoVj1urXJT3G+I2w/DY60JXSDy1jEzljoW9NhNvEyt/Mn/LNSvtH6E148GPg72Pj4k5d2cRp9DQPquleMvo0LYT9kOz0DTMLYIUC/zmXevkTC1nRspGE13iCjiuECyGYVpx2Ufu2TU7tgr2bTFjbsOKUL+nUhbCHsmAV30G/O0rafzR5MzvriJa7hvyVLW4df8mOtA26iOKL5LfPy7q8QthB2zNy05X0z+a1+bMphbxAmbYRYhOw2zPsHxfzWr4rcHiFsIWwh7BjHQEJSJYKnSaNWVZQfd0UmvSD3XQg7xm/WIINT2i52fsGAGQNC2ELYorAFA4KBgGBACDsgEyVKw6w0ZDxkPCoiBoSwhbBFXQkGBAMBwYAQts8mqknjWiSHjIFgQDBghwEhbCFseUDIQ1IwEBAM/D+nXWiJNVuqPQAAAABJRU5ErkJggg==;" parent="Lf4OAfzkMTAFU_OsHtha-1" vertex="1">
                    <mxGeometry x="40" y="350" width="320" height="167.03" as="geometry"/>
                </mxCell>
            </root>
        </mxGraphModel>
    </diagram>
    <diagram id="x1Ef4g9ut7Eu76JA_0Gy" name="002 - Call Stack">
        <mxGraphModel dx="882" dy="830" grid="1" gridSize="10" guides="1" tooltips="1" connect="1" arrows="1" fold="1" page="1" pageScale="1" pageWidth="827" pageHeight="1169" math="0" shadow="0">
            <root>
                <mxCell id="__bRa9TwVW22Wu3Rl-U3-0"/>
                <mxCell id="__bRa9TwVW22Wu3Rl-U3-1" parent="__bRa9TwVW22Wu3Rl-U3-0"/>
                <mxCell id="ZLcq4pFLrCgyHDIn4nCz-0" value="Main Execution Context" style="rounded=0;whiteSpace=wrap;html=1;labelPosition=center;verticalLabelPosition=bottom;align=center;verticalAlign=top;fillColor=#fff2cc;strokeColor=#d6b656;" parent="__bRa9TwVW22Wu3Rl-U3-1" vertex="1">
                    <mxGeometry x="40" y="80" width="240" height="400" as="geometry"/>
                </mxCell>
                <mxCell id="ZLcq4pFLrCgyHDIn4nCz-1" value="this: window, outer environment: window" style="rounded=0;whiteSpace=wrap;html=1;" parent="__bRa9TwVW22Wu3Rl-U3-1" vertex="1">
                    <mxGeometry x="50" y="410" width="220" height="60" as="geometry"/>
                </mxCell>
                <mxCell id="ZLcq4pFLrCgyHDIn4nCz-2" value="Call Stack" style="text;html=1;strokeColor=none;fillColor=none;align=center;verticalAlign=middle;whiteSpace=wrap;rounded=0;" parent="__bRa9TwVW22Wu3Rl-U3-1" vertex="1">
                    <mxGeometry x="40" y="60" width="240" height="20" as="geometry"/>
                </mxCell>
            </root>
        </mxGraphModel>
    </diagram>
</mxfile>